{
  "accessors": [
    {
      "bufferView": 2,
      "componentType": 5126,
      "count": 4019,
      "max": [
        0.14520929753780365,
        2.411961317062378,
        0.14657138288021088
      ],
      "min": [
        -0.14500832557678223,
        -3.958409309387207,
        -0.16566085815429688
      ],
      "type": "VEC3"
    },
    {
      "bufferView": 2,
      "byteOffset": 48228,
      "componentType": 5126,
      "count": 4019,
      "max": [
        0.9998779892921448,
        0.241835817694664,
        0.9999257326126099
      ],
      "min": [
        -0.9990747570991516,
        -0.9967012405395508,
        -0.9995942711830139
      ],
      "type": "VEC3"
    },
    {
      "bufferView": 1,
      "componentType": 5126,
      "count": 4019,
      "max": [
        0.9865807294845581,
        0.6249448657035828
      ],
      "min": [
        0.3654532730579376,
        0.03407711535692215
      ],
      "type": "VEC2"
    },
    {
      "bufferView": 0,
      "componentType": 5125,
      "count": 22563,
      "type": "SCALAR"
    },
    {
      "bufferView": 2,
      "byteOffset": 96456,
      "componentType": 5126,
      "count": 24721,
      "max": [
        0.3512064516544342,
        6.2756876945495605,
        0.37228983640670776
      ],
      "min": [
        -0.44439300894737244,
        2.273932933807373,
        -0.3788622319698334
      ],
      "type": "VEC3"
    },
    {
      "bufferView": 2,
      "byteOffset": 393108,
      "componentType": 5126,
      "count": 24721,
      "max": [
        0.9999516010284424,
        0.9999951720237732,
        0.9999994039535522
      ],
      "min": [
        -0.9999977350234985,
        -0.9233787655830383,
        -0.9999744296073914
      ],
      "type": "VEC3"
    },
    {
      "bufferView": 1,
      "byteOffset": 32152,
      "componentType": 5126,
      "count": 24721,
      "max": [
        0.8813275098800659,
        0.9661787748336792
      ],
      "min": [
        0.009966585785150528,
        0.05478845536708832
      ],
      "type": "VEC2"
    },
    {
      "bufferView": 0,
      "byteOffset": 90252,
      "componentType": 5125,
      "count": 144285,
      "type": "SCALAR"
    }
  ],
  "asset": {
    "extras": {
      "author": "Xeries (https://sketchfab.com/Xeriesart)",
      "license": "CC-BY-4.0 (http://creativecommons.org/licenses/by/4.0/)",
      "source": "https://sketchfab.com/3d-models/harry-potters-wand-b59abd3afc9a4abcbaef893babfc3a47",
      "title": "Harry Potter's wand"
    },
    "generator": "Sketchfab-15.59.0",
    "version": "2.0"
  },
  "bufferViews": [
    {
      "buffer": 0,
      "byteLength": 667392,
      "name": "floatBufferViews",
      "target": 34963
    },
    {
      "buffer": 0,
      "byteLength": 229920,
      "byteOffset": 667392,
      "byteStride": 8,
      "name": "floatBufferViews",
      "target": 34962
    },
    {
      "buffer": 0,
      "byteLength": 689760,
      "byteOffset": 897312,
      "byteStride": 12,
      "name": "floatBufferViews",
      "target": 34962
    }
  ],
  "buffers": [
    {
      "byteLength": 1587072,
      "uri": "scene.bin"
    }
  ],
  "extensionsUsed": [
    "KHR_materials_specular"
  ],
  "images": [
    {
      "uri": "textures/Wood_baseColor.png"
    },
    {
      "uri": "textures/Bark_baseColor.png"
    },
    {
      "uri": "textures/Bark_specularf0.png"
    }
  ],
  "materials": [
    {
      "doubleSided": true,
      "name": "Wood",
      "pbrMetallicRoughness": {
        "baseColorTexture": {
          "index": 0
        },
        "metallicFactor": 0.0,
        "roughnessFactor": 0.487
      }
    },
    {
      "doubleSided": true,
      "extensions": {
        "KHR_materials_specular": {
          "specularColorFactor": [
            1.0,
            1.0,
            1.0
          ],
          "specularFactor": 1.0,
          "specularTexture": {
            "index": 2
          }
        }
      },
      "name": "Bark",
      "pbrMetallicRoughness": {
        "baseColorTexture": {
          "index": 1
        },
        "metallicFactor": 0.0,
        "roughnessFactor": 0.4007631261352415
      }
    }
  ],
  "meshes": [
    {
      "name": "Object_0",
      "primitives": [
        {
          "attributes": {
            "NORMAL": 1,
            "POSITION": 0,
            "TEXCOORD_0": 2
          },
          "indices": 3,
          "material": 0,
          "mode": 4
        }
      ]
    },
    {
      "name": "Object_1",
      "primitives": [
        {
          "attributes": {
            "NORMAL": 5,
            "POSITION": 4,
            "TEXCOORD_0": 6
          },
          "indices": 7,
          "material": 1,
          "mode": 4
        }
      ]
    }
  ],
  "nodes": [
    {
      "children": [
        1
      ],
      "matrix": [
        1.0,
        0.0,
        0.0,
        0.0,
        0.0,
        -1.0,
        -4.440892098500626e-16,
        0.0,
        0.0,
        4.440892098500626e-16,
        -1.0,
        0.0,
        0.0,
        0.0,
        0.0,
        1.0
      ],
      "name": "Sketchfab_model"
    },
    {
      "children": [
        2
      ],
      "name": "root"
    },
    {
      "children": [
        3
      ],
      "matrix": [
        1.0,
        0.0,
        0.0,
        0.0,
        0.0,
        2.220446049250313e-16,
        1.0,
        0.0,
        0.0,
        -1.0,
        2.220446049250313e-16,
        0.0,
        0.0,
        0.0,
        0.0,
        1.0
      ],
      "name": "GLTF_SceneRootNode"
    },
    {
      "children": [
        4,
        5
      ],
      "matrix": [
        1.0,
        0.0,
        0.0,
        0.0,
        0.0,
        -0.9999999999999467,
        -3.258413698858844e-07,
        0.0,
        0.0,
        3.258413698858844e-07,
        -0.9999999999999467,
        0.0,
        0.0,
        0.0,
        0.0,
        1.0
      ],
      "name": "Cylinder_2"
    },
    {
      "mesh": 0,
      "name": "Object_4"
    },
    {
      "mesh": 1,
      "name": "Object_5"
    }
  ],
  "samplers": [
    {
      "magFilter": 9729,
      "minFilter": 9987,
      "wrapS": 10497,
      "wrapT": 10497
    }
  ],
  "scene": 0,
  "scenes": [
    {
      "name": "Sketchfab_Scene",
      "nodes": [
        0
      ]
    }
  ],
  "textures": [
    {
      "sampler": 0,
      "source": 0
    },
    {
      "sampler": 0,
      "source": 1
    },
    {
      "sampler": 0,
      "source": 2
    }
  ]
}
